<svg width="349" height="1080" viewBox="0 0 349 1080" fill="none" xmlns="http://www.w3.org/2000/svg">
<path fill-rule="evenodd" clip-rule="evenodd" d="M645.482 -88.6127C797.414 -59.5978 877.668 76.9613 984.815 174.863C1069.61 252.342 1141.76 330.755 1204.88 422.511C1288.68 544.339 1470.92 664.096 1412.51 796.622C1353.19 931.222 1117.39 903.804 966.364 963.663C855.218 1007.72 765.795 1082.15 645.482 1100.64C505.336 1122.18 62.3477 1278.5 165.5 1167C268.652 1055.5 39.9225 954.342 5.50003 818.5C-28.6027 683.92 119.195 585.63 62.3477 415.815C5.49993 246 63.3921 118.9 177.032 20.5982C294.431 -80.9556 483.613 -119.525 645.482 -88.6127Z" fill="white"/>
</svg>
